# xmcd
#
# Track frame offsets:
#	183
#	12145
#	24745
#	36845
#	48845
#	61670
#	75520
#	97883
#	108970
#	121570
#	131695
#	145070
#
# Disc length: 2086 seconds
#
# Revision: 0
# Processed by: cddbd v1.5.2PL0 Copyright (c) Steve Scherf et al.
# Submitted via: audiograbber 1.83.01
#
DISCID=8608240c
DTITLE=The Platters - Best of
DYEAR=1993
DGENRE=Blues
TTITLE0=Only you
TTITLE1=Twilight time
TTITLE2=Smoke gets in your eyes
TTITLE3=The great pretender
TTITLE4=Remember when
TTITLE5=Alone in the night
TTITLE6=Unchained melody
TTITLE7=The magic touch
TTITLE8=My prayer
TTITLE9=If you need me
TTITLE10=I'm sorry
TTITLE11=My dream
EXTD=
EXTT0=
EXTT1=
EXTT2=
EXTT3=
EXTT4=
EXTT5=
EXTT6=
EXTT7=
EXTT8=
EXTT9=
EXTT10=
EXTT11=
PLAYORDER=
